<svg width="32" height="32" viewBox="0 0 32 32" fill="none" xmlns="http://www.w3.org/2000/svg">
<rect width="32" height="32" fill="black"/>
<path d="M21.6492 14.4025V7.50568C21.6492 6.032 21.0565 4.65263 19.9919 3.61516C18.9274 2.57768 17.5121 2 16 2C12.8911 2 10.3508 4.464 10.3508 7.50568V14.4025C8.30645 16.0059 7 18.4699 7 21.2286C7 26.0741 11.0282 30 16 30C20.9718 30 25 26.0741 25 21.2286C25 18.4699 23.6936 16.0059 21.6492 14.4025ZM16 3.88632C16.9919 3.88632 17.9234 4.26358 18.625 4.94737C19.3266 5.63116 19.7137 6.53895 19.7137 7.50568V13.2354C18.5766 12.7402 17.3185 12.4573 16 12.4573C14.6815 12.4573 13.4234 12.7402 12.2863 13.2354V7.50568C12.2863 5.51326 13.9556 3.88632 16 3.88632ZM18.2621 26.5221H13.7258C13.3508 26.5221 13.0847 26.1448 13.2298 25.803L14.754 22.1128C13.4839 21.6059 12.6008 20.3562 12.6976 18.9179C12.7944 17.3145 14.1371 16.0059 15.7823 15.9116C17.7056 15.7937 19.3024 17.2792 19.3024 19.1301C19.3024 20.4859 18.4436 21.6413 17.2339 22.1128L18.7581 25.803C18.9032 26.1566 18.6492 26.5221 18.2621 26.5221Z" fill="#00FF57"/>
</svg>
